P1
3 2
# test
001101
