P3 # test
3 2
255
250 0 0 0 251 0 0 0 255
255 255 0 0 255 215 251 255 251 
